<?xml version="1.0" encoding="UTF-8" standalone="no"?>
<!-- Generator: Adobe Illustrator 24.2.1, SVG Export Plug-In . SVG Version: 6.00 Build 0)  -->

<svg
   version="1.1"
   id="Layer_1"
   x="0px"
   y="0px"
   viewBox="0 0 512 513.3"
   style="enable-background:new 0 0 512 513.3;"
   xml:space="preserve"
   sodipodi:docname="SlicerROS2.svg"
   inkscape:version="1.2.2 (b0a8486541, 2022-12-01)"
   xmlns:inkscape="http://www.inkscape.org/namespaces/inkscape"
   xmlns:sodipodi="http://sodipodi.sourceforge.net/DTD/sodipodi-0.dtd"
   xmlns:xlink="http://www.w3.org/1999/xlink"
   xmlns="http://www.w3.org/2000/svg"
   xmlns:svg="http://www.w3.org/2000/svg"><defs
   id="defs95">
	
	
	
	
	
	
	
	
	
	
	
	
</defs><sodipodi:namedview
   id="namedview93"
   pagecolor="#ffffff"
   bordercolor="#000000"
   borderopacity="0.25"
   inkscape:showpageshadow="2"
   inkscape:pageopacity="0.0"
   inkscape:pagecheckerboard="0"
   inkscape:deskcolor="#d1d1d1"
   showgrid="false"
   inkscape:zoom="2.0007793"
   inkscape:cx="255.90029"
   inkscape:cy="256.40009"
   inkscape:window-width="3782"
   inkscape:window-height="2078"
   inkscape:window-x="0"
   inkscape:window-y="0"
   inkscape:window-maximized="1"
   inkscape:current-layer="layer1" />
<style
   type="text/css"
   id="style2">
	.st0{fill:#909CAF;}
	.st1{fill:#626E7F;}
	.st2{fill:#AFB8D2;}
	.st3{fill:#BCC9CB;}
	.st4{fill:#FEFFFF;}
	.st5{fill:#F7BF21;}
	.st6{fill:#129A68;}
	.st7{fill:#F26B31;}
	.st8{fill:#1F65B0;}
	.st9{fill:#EE3128;}
	.st10{fill:#CF582C;}
</style>
<g
   id="g90"
   transform="translate(1.3412742,-2.9012133)">
	<path
   d="m 500.3,245.7 v 0 -77.3 H 425.8 V 93.9 H 351.2 V 19.4 L 289.9,19.3 274,19.4 c 0,0 -4.3,-16.3 -43.5,-13 C 104,19.4 5.5,126.2 5.5,256 c 0,138.6 112.4,251 251,251 129.6,0 236.3,-98.2 249.6,-224.3 2.1,-28 -5.8,-37 -5.8,-37 z"
   id="path4" />
	<g
   id="g14">
		<defs
   id="defs7">
			<path
   id="SVGID_1_"
   d="m 261.1,348.7 c -28.4,0 -62.6,-3.3 -87.8,-6.6 -3.7,-27.6 -4.6,-57.5 -4.6,-89 0,-127 33.1,-231.8 75.1,-241.5 -127.4,6.9 -228.7,113.5 -228.7,244 0,135 108.3,244.4 242,244.4 129.1,0 234.5,-102.1 241.6,-230.6 -6.6,44.8 -112.7,79.3 -237.6,79.3 z" />
		</defs>
		<use
   xlink:href="#SVGID_1_"
   style="overflow:visible;fill:#afb8d1"
   id="use9" />
		<clipPath
   id="SVGID_2_">
			<use
   xlink:href="#SVGID_1_"
   style="overflow:visible"
   id="use11" />
		</clipPath>
	</g>
	<g
   id="g20">
		<g
   id="g18">
			<path
   d="M 256.1,501.4 C 191.1,501.4 130,475.8 84,429.4 38,383 12.7,321.2 12.7,255.6 12.8,125 113.8,17.2 242.8,10.1 c 0.7,0 1.3,0.5 1.5,1.2 0.1,0.7 -0.4,1.4 -1.1,1.5 -41.5,9.6 -74,115.1 -74,240.2 0,25 1.7,57.6 5.6,87.8 15.7,2 52,6.4 85.4,6.4 60.6,0 118.4,-8.1 162.7,-22.8 44.3,-14.7 70.4,-34.3 73.4,-55.3 0.1,-0.7 0.8,-1.2 1.5,-1.2 0.7,0.1 1.3,0.7 1.2,1.5 -7,130.1 -113.8,232 -242.9,232 z M 233.8,13.6 C 110.7,25 15.5,129.6 15.5,255.6 c 0,134 107.9,243 240.6,243 123.8,0 226.9,-94.8 239.3,-218 -9.2,17.8 -34,34 -71.7,46.5 -44.5,14.8 -102.6,22.9 -163.5,22.9 -34.3,0 -71,-5.4 -86,-7.4 -0.6,-0.1 -1.1,-0.6 -1.2,-1.2 -4.1,-30.7 -6.2,-63 -6.2,-88.4 0,-61.4 7.4,-120 21.5,-165.1 12.1,-38.9 28,-64.7 45.5,-74.3 z"
   id="path16" />
		</g>
	</g>
	<g
   id="g26">
		<g
   id="g24">
			<path
   class="st0"
   d="m 423.9,339.7 c -1,0.3 -2,0.6 -3,0.9 C 394,412 331.8,465.8 257.7,485 c 0.9,0 1.8,0 2.7,0 55.8,0 109.4,-20.1 150.8,-56.5 35.3,-31 59.2,-71.7 69,-116.3 -13.1,10.6 -32.1,19.9 -56.3,27.5 z"
   id="path22" />
		</g>
	</g>
	<g
   id="g32">
		<g
   id="g30">
			<path
   class="st1"
   d="M 268.4,34.5 C 267.8,20.3 256.6,16.6 251.2,16.4 234.4,15.9 214.2,39.6 199.4,84.7 184.4,130.1 168,207 179.7,337.4 l 32.4,-31.3 c 0,0 -0.2,-2.5 -0.4,-5 0,0 -2.5,-31.5 -2.8,-47.5 -0.9,-48.7 3.3,-94.3 13.7,-128.7 10.4,-34.7 29.6,-64.1 44.5,-64.1 5.1,0 5.1,12.4 10,16.9 z"
   id="path28" />
		</g>
	</g>
	<g
   id="g38">
		<g
   id="g36">
			<path
   class="st2"
   d="m 424.9,319.5 c 27.9,-9.8 87.3,-36.3 62,-75.8 -1.5,-2.4 -3.4,-4.5 -5.7,-6.1 h -47.3 c 5.9,5.6 8.9,11.5 8.9,17.5 0,14.9 -18.5,28.8 -52,39.2 -33.3,10.4 -77.6,16.1 -124.8,16.1 -18.5,0 -36.7,-0.9 -54.2,-2.6 h -0.1 l -31.8,29.8 c 15.7,2 53.3,5.5 84.6,5.5 60.3,-0.1 117.3,-8.5 160.4,-23.6 z"
   id="path34" />
		</g>
	</g>
	<g
   id="g42">
		<path
   class="st3"
   d="m 268,66.7 c -25.5,0 -52.9,72.3 -52.9,179.9 0,16.5 1.5,38.3 2.8,54.1 L 286.3,233.2 286,73.8 c -4.9,-5.2 -13,-7.1 -18,-7.1 z"
   id="path40" />
	</g>
	<g
   id="g50">
		<g
   id="g48">
			<path
   class="st4"
   d="m 271.3,305.3 c -14.3,0 -34.6,-1.1 -48.2,-2.7 l 69.3,-67 149,-0.1 c 4,4.4 5.9,9.5 5.7,15.6 -0.3,10.4 -15.1,26.3 -46.9,36.4 -31.6,10.1 -75.2,16.4 -122.8,17.7 -1.8,0 -3.9,0.1 -6.1,0.1 z"
   id="path44" />
			<path
   d="m 271.3,306.7 c -14.1,0 -32.9,-1.1 -46.9,-2.7 l -2.8,-0.3 66.5,-69.5 h 0.6 l 153.3,-0.1 0.4,0.5 c 4.3,4.7 6.2,10.1 6,16.5 -0.2,6 -4.5,12.9 -12.1,19.4 -8.6,7.3 -21,13.7 -35.7,18.4 -31.8,10.1 -75.5,16.5 -123.2,17.8 -1.8,-0.1 -3.9,0 -6.1,0 z m -47.2,-5.2 c 13.5,1.4 34.2,2.4 47.2,2.4 2.2,0 4.2,0 6.1,-0.1 47.4,-1.3 90.9,-7.6 122.4,-17.7 14.4,-4.6 26.4,-10.8 34.7,-17.8 6.9,-5.9 11,-12.2 11.2,-17.3 0.2,-5.5 -1.4,-10.1 -4.9,-14.1 L 291.1,237 Z"
   id="path46" />
		</g>
	</g>
	<path
   d="m 493.9,256.2 c -2,26.7 -21.7,46 -60.1,59 -67.2,22.8 -133.6,26.5 -177.4,25.6 -30,-0.6 -53.9,-3.4 -67.5,-5.4 l 29.7,-28.6 c 14,1.9 36.1,3.3 52.8,3.3 2.2,0 4.4,0 6.3,-0.1 48,-1.3 92.1,-7.7 124.1,-18 15,-4.8 27.7,-11.3 36.7,-18.9 8.5,-7.1 13.3,-15 13.5,-22.1 0.2,-7.9 -2.5,-14.7 -8.1,-20.2 l -0.4,-0.4 -153.7,0.1 -0.3,-156.8 c 0,-0.9 -0.3,-1.7 -0.9,-2.4 -5.3,-5.7 -14.2,-10.9 -20.5,-10.9 -14.7,0 -28.7,21.2 -39.3,54.7 -11,34.5 -17,81.2 -17,131.4 0,17.6 1.6,40.3 2.6,51.6 l -36.6,35.3 c -0.8,-0.1 -1.2,-0.2 -1.3,-0.2 0,0 0,0 0,0 l -2,9.6 c 1.3,0.3 33.1,6.7 81.6,7.7 4.2,0.1 8.3,0.1 12.5,0.1 24.2,0 48.2,-1.5 71.4,-4.4 34.1,-4.2 66.8,-11.6 97.1,-21.9 22.3,-7.6 39.2,-17.6 50.3,-29.7 9.8,-10.8 15.3,-23.5 16.4,-37.8 z m -51.7,-5.3 c -0.1,4.1 -3.9,9.7 -10.1,14.9 -8,6.7 -19.6,12.6 -33.4,17.1 -31.2,10 -74.3,16.2 -121.4,17.5 -17.9,0.1 -39.2,-0.6 -50.6,-1.5 l 60.6,-58.4 151.8,-0.1 c 2.3,3 3.2,6.3 3.1,10.5 z m -223.6,-4.2 c 0,-113.6 29,-176.2 49.2,-176.2 4.4,0 10.8,1.3 14.8,4.8 l 0.3,156.5 -11.9,11.7 -50.3,48.5 c -0.9,-12.1 -2.1,-30.5 -2.1,-45.3 z"
   id="path52" />
	<g
   id="g58">
		<g
   id="g56">
			<rect
   x="276.39999"
   y="29.1"
   class="st5"
   width="64.800003"
   height="64.800003"
   id="rect54" />
		</g>
	</g>
	<g
   id="g64">
		<g
   id="g62">
			<rect
   x="276.39999"
   y="103.5"
   class="st6"
   width="64.800003"
   height="64.800003"
   id="rect60" />
		</g>
	</g>
	<g
   id="g68">
		<rect
   x="351.10001"
   y="103.5"
   class="st7"
   width="64.800003"
   height="64.800003"
   id="rect66" />
	</g>
	<g
   id="g74">
		<g
   id="g72">
			<rect
   x="425.70001"
   y="178.2"
   class="st8"
   width="64.800003"
   height="64.800003"
   id="rect70" />
		</g>
	</g>
	<g
   id="g80">
		<g
   id="g78">
			<rect
   x="276.39999"
   y="178.2"
   class="st9"
   width="64.800003"
   height="64.800003"
   id="rect76" />
		</g>
	</g>
	<g
   id="g86">
		<g
   id="g84">
			<rect
   x="351.10001"
   y="178.2"
   class="st10"
   width="64.800003"
   height="64.800003"
   id="rect82" />
		</g>
	</g>
	<path
   d="m 500.3,245.7 v 0 -77.3 H 425.8 V 93.9 H 351.2 V 19.4 H 274 c 0,0 -0.5,-1.9 -2.8,-4.3 0,0 -3.9,1.1 -3.9,3.3 0,2.2 0,232.7 0,232.7 l 4.1,1.5 h 224.9 z m -159.1,-2.8 h -64.4 v -64.8 h 64.4 v 64.8 z m 0,-74.4 h -64.4 v -65.1 h 64.4 v 65.1 z m 0,-74.7 H 276.8 V 29 h 64.4 v 64.8 z m 74.7,149.1 h -65.1 v -64.8 h 65.1 z m 0,-74.4 h -65.1 v -65.1 h 65.1 z m 74.6,74.4 h -64.8 v -64.8 h 64.8 z"
   id="path88" />
</g>
<g
   inkscape:groupmode="layer"
   id="layer1"
   inkscape:label="Layer 1"><g
     id="g477"
     transform="matrix(1.0305867,0,0,1.0305867,-43.831772,-64.441019)"><path
       id="path39880"
       fill="#22314e"
       d="m 365.16796,119.48968 c 0,11.65182 -9.14176,21.09785 -20.41698,21.09785 -11.27419,0 -20.41491,-9.44603 -20.41491,-21.09785 0,-11.64968 9.14176,-21.097847 20.41491,-21.097847 11.27522,0 20.41698,9.448167 20.41698,21.097847 z"
       style="stroke-width:1.05281" /><path
       id="path39882"
       fill="#22314e"
       d="m 365.16796,191.38804 c 0,11.65182 -9.14176,21.09785 -20.41698,21.09785 -11.27419,0 -20.41491,-9.44603 -20.41491,-21.09785 0,-11.65182 9.14176,-21.09785 20.41491,-21.09785 11.27522,0 20.41698,9.44603 20.41698,21.09785 z"
       style="stroke-width:1.05281" /><path
       id="path39884"
       fill="#22314e"
       d="m 365.16796,263.28747 c 0,11.64967 -9.14176,21.09785 -20.41698,21.09785 -11.27419,0 -20.41491,-9.44818 -20.41491,-21.09785 0,-11.64968 9.14176,-21.09785 20.41491,-21.09785 11.27522,0 20.41698,9.4471 20.41698,21.09785 z"
       style="stroke-width:1.05281" /><path
       id="path39886"
       fill="#22314e"
       d="m 436.40992,191.38804 c 0,11.65182 -9.14177,21.09785 -20.41699,21.09785 -11.27418,0 -20.41491,-9.44603 -20.41491,-21.09785 0,-11.65182 9.14176,-21.09785 20.41491,-21.09785 11.27522,0 20.41699,9.44603 20.41699,21.09785 z"
       style="stroke-width:1.05281" /><path
       id="path39888"
       fill="#22314e"
       d="m 436.40992,119.48968 c 0,11.65182 -9.14177,21.09785 -20.41699,21.09785 -11.27418,0 -20.41491,-9.44603 -20.41491,-21.09785 0,-11.64968 9.14176,-21.097847 20.41491,-21.097847 11.27522,0 20.41699,9.448167 20.41699,21.097847 z"
       style="stroke-width:1.05281" /><path
       id="path39890"
       fill="#22314e"
       d="m 507.65083,191.38804 c 0,11.65182 -9.14176,21.09785 -20.41698,21.09785 -11.27418,0 -20.41491,-9.44603 -20.41491,-21.09785 0,-11.65182 9.14176,-21.09785 20.41491,-21.09785 11.27626,0 20.41698,9.44603 20.41698,21.09785 z"
       style="stroke-width:1.05281" /><path
       id="path39892"
       fill="#22314e"
       d="m 507.65083,119.48968 c 0,11.65182 -9.14176,21.09785 -20.41698,21.09785 -11.27418,0 -20.41491,-9.44603 -20.41491,-21.09785 0,-11.64968 9.14176,-21.097847 20.41491,-21.097847 11.27626,0 20.41698,9.448167 20.41698,21.097847 z"
       style="stroke-width:1.05281" /><path
       id="path39894"
       fill="#22314e"
       d="m 507.65083,263.28747 c 0,11.64967 -9.14176,21.09785 -20.41698,21.09785 -11.27418,0 -20.41491,-9.44818 -20.41491,-21.09785 0,-11.64968 9.14176,-21.09785 20.41491,-21.09785 11.27626,0 20.41698,9.4471 20.41698,21.09785 z"
       style="stroke-width:1.05281" /><path
       id="path39896"
       fill="#22314e"
       d="m 436.40992,263.28747 c 0,11.64967 -9.14177,21.09785 -20.41699,21.09785 -11.27418,0 -20.41491,-9.44818 -20.41491,-21.09785 0,-11.64968 9.14176,-21.09785 20.41491,-21.09785 11.27522,0 20.41699,9.4471 20.41699,21.09785 z"
       style="stroke-width:1.05281" /></g></g></svg>
